<svg width="125" height="400" version="1.1" xmlns="http://www.w3.org/2000/svg" desc="Created with imagetracer.js version 1.2.6" ><path fill="rgb(0,0,0)" stroke="rgb(0,0,0)" stroke-width="1" opacity="1" d="M 29.5 0 L 76.5 0 L 77.5 1 L 94.5 1 L 98 2 L 98 11 L 105.5 11 L 106.5 10 L 123 10 L 124 14.5 L 123 18.5 L 108.5 34 L 104.5 36 L 98 36 L 97 50.5 L 98 51.5 L 98 64 L 122.5 64 L 124 65.5 L 125 70.5 L 124 74.5 L 106.5 93 L 97 94 L 97 101.5 L 96 102.5 L 96 120 L 114.5 120 L 117.5 119 L 120 121.5 L 120 124.5 L 118 129 L 111 134.5 L 104.5 142 L 100.5 144 L 95 144 L 95 167.5 L 94 170 L 91.5 171 L 74 171 L 74 234.5 L 73 235.5 L 73 285.5 L 72 286.5 L 72 373 L 79.5 373 L 80.5 374 L 98 374 L 103 388.5 L 104 398 L 99.5 399 L 23.5 399 L 21.5 400 L 18 399 L 18 394.5 L 26 372 L 55 373 L 55 320.5 L 54 319.5 L 54 170 L 48.5 169 L 33.5 169 L 30 168 L 28 157.5 L 28 141 L 22.5 140 L 13 130.5 L 9.5 126 L 7 124.5 L 6 117.5 L 9.5 115 L 15.5 115 L 27 117 L 26.5 89 L 24.5 89 L 19.5 88 L 12 81.5 L 8.5 77 L 2 71.5 L 0 66.5 L 2.5 62 L 27 62 L 27 36.5 L 25.5 37 L 19.5 36 L 11 28.5 L 3 18.5 L 2 12.5 L 3 10 L 28 11 L 27 2.5 L 29.5 0 Z M 31 3 L 30 7 L 65 7 L 66 8 L 94 8 L 94 4 L 72 4 L 71 3 L 48 3 L 47 4 L 31 3 Z M 112 13 L 111 14 L 98 14 L 100 18 L 112 17 L 113 19 L 113 17 L 120 15 L 119 13 L 112 13 Z M 8 14 L 9 16 L 14 18 L 25 18 L 26 19 L 27 19 L 27 15 L 21 14 L 8 14 Z M 63 22 L 56 25 L 48 33 L 50 35 L 52 35 L 60 28 L 68 26 L 68 22 L 63 22 Z M 86 29 L 85 32 L 86 32 L 86 29 Z M 78 64 L 78 66 L 80 66 L 80 64 L 78 64 Z M 7 65 L 5 67 L 10 69 L 27 69 L 27 66 L 21 65 L 9 65 L 7 65 Z M 57 65 L 58 67 L 58 65 L 57 65 Z M 68 66 L 68 67 L 70 67 L 68 66 Z M 98 67 L 98 72 L 112 72 L 113 71 L 118 71 L 121 69 L 114 68 L 112 68 L 107 67 L 104 68 L 98 67 Z M 62 70 L 55 73 L 49 84 L 50 97 L 56 102 L 61 104 L 71 104 L 74 103 L 78 98 L 81 91 L 81 81 L 79 77 L 74 72 L 68 70 L 62 70 Z M 85 72 L 84 77 L 85 77 L 85 72 Z M 46 88 L 45 98 L 46 98 L 46 88 Z M 85 93 L 85 96 L 86 95 L 85 93 Z M 47 100 L 48 102 L 49 101 L 47 100 Z M 80 102 L 78 105 L 77 107 L 80 106 L 80 102 Z M 50 104 L 51 106 L 51 104 L 50 104 Z M 78 109 L 78 111 L 78 112 L 80 112 L 80 110 L 78 109 Z M 56 110 L 56 112 L 58 112 L 58 110 L 56 110 Z M 65 111 L 65 112 L 67 112 L 65 111 Z M 12 119 L 10 121 L 16 123 L 24 123 L 25 124 L 27 124 L 27 121 L 19 119 L 12 119 Z M 59 123 L 49 130 L 51 132 L 61 127 L 72 128 L 73 125 L 72 123 L 59 123 Z M 106 123 L 105 124 L 96 124 L 96 127 L 110 127 L 114 126 L 116 124 L 106 123 Z M 45 125 L 43 127 L 43 128 L 45 128 L 45 125 Z M 84 125 L 83 128 L 84 128 L 84 125 Z M 89 149 L 89 151 L 91 150 L 89 149 Z M 91 160 L 90 163 L 91 163 L 91 160 Z M 71 174 L 69 176 L 71 176 L 71 174 Z M 70 192 L 69 208 L 70 208 L 70 192 Z M 70 216 L 69 219 L 70 219 L 70 216 Z M 30 375 L 28 379 L 32 380 L 88 380 L 89 381 L 96 381 L 96 377 L 51 377 L 50 376 L 32 376 L 30 375 Z " /><path fill="rgb(0,0,127)" stroke="rgb(0,0,127)" stroke-width="1" opacity="1" d="M 78.5 64 L 79.5 66 L 78 66 L 78.5 64 Z " /><path fill="rgb(0,0,127)" stroke="rgb(0,0,127)" stroke-width="1" opacity="1" d="M 51.5 71 L 52 72.5 L 50 73.5 L 51.5 71 Z " /><path fill="rgb(0,0,127)" stroke="rgb(0,0,127)" stroke-width="1" opacity="1" d="M 48.5 100 L 50 101.5 L 48.5 103 L 47 101.5 L 48.5 100 Z " /><path fill="rgb(0,0,127)" stroke="rgb(0,0,127)" stroke-width="1" opacity="1" d="M 79.5 102 L 80 106 L 76.5 107 L 78 104.5 L 79.5 102 Z " /><path fill="rgb(0,127,0)" stroke="rgb(0,127,0)" stroke-width="1" opacity="1" d="M 56.5 65 L 55.5 67 L 56.5 65 Z " /><path fill="rgb(127,0,0)" stroke="rgb(127,0,0)" stroke-width="1" opacity="1" d="M 85.5 29 L 86 31.5 L 85 31.5 L 85.5 29 Z " /><path fill="rgb(127,0,0)" stroke="rgb(127,0,0)" stroke-width="1" opacity="1" d="M 45.5 88 L 46 91.5 L 45 91.5 L 45.5 88 Z " /><path fill="rgb(127,0,0)" stroke="rgb(127,0,0)" stroke-width="1" opacity="1" d="M 85.5 94 L 84.5 96 L 85.5 94 Z " /><path fill="rgb(127,0,0)" stroke="rgb(127,0,0)" stroke-width="1" opacity="1" d="M 49.5 104 L 51 104 L 51 105.5 L 49.5 104 Z " /><path fill="rgb(127,0,0)" stroke="rgb(127,0,0)" stroke-width="1" opacity="1" d="M 77.5 109 L 80 109.5 L 79.5 112 L 78 112 L 78 110.5 L 77.5 109 Z " /><path fill="rgb(127,0,0)" stroke="rgb(127,0,0)" stroke-width="1" opacity="1" d="M 56 110 L 58 110 L 58 112 L 56 112 L 56 110 Z " /><path fill="rgb(127,0,0)" stroke="rgb(127,0,0)" stroke-width="1" opacity="1" d="M 64.5 111 L 67 111.5 L 64.5 112 L 64.5 111 Z " /><path fill="rgb(127,0,0)" stroke="rgb(127,0,0)" stroke-width="1" opacity="1" d="M 44.5 125 L 44 126.5 L 43.5 128 L 43 126.5 L 44.5 125 Z " /><path fill="rgb(127,127,0)" stroke="rgb(127,127,0)" stroke-width="1" opacity="1" d="M 64.5 70 L 68 70.5 L 64.5 71 L 64.5 70 Z " /><path fill="rgb(127,127,0)" stroke="rgb(127,127,0)" stroke-width="1" opacity="1" d="M 76.5 74 L 78.5 77 L 76.5 74 Z " /><path fill="rgb(127,127,0)" stroke="rgb(127,127,0)" stroke-width="1" opacity="1" d="M 51.5 94 L 52.5 96 L 50.5 97 L 51 95.5 L 51.5 94 Z " /><path fill="rgb(127,127,0)" stroke="rgb(127,127,0)" stroke-width="1" opacity="1" d="M 75.5 100 L 74.5 102 L 75.5 100 Z " /><path fill="rgb(127,127,127)" stroke="rgb(127,127,127)" stroke-width="1" opacity="1" d="M 28.5 0 L 27.5 2 L 28.5 0 Z " /><path fill="rgb(127,127,127)" stroke="rgb(127,127,127)" stroke-width="1" opacity="1" d="M 77.5 0 L 87 0.5 L 77.5 1 L 77.5 0 Z " /><path fill="rgb(127,127,127)" stroke="rgb(127,127,127)" stroke-width="1" opacity="1" d="M 95.5 1 L 99 2.5 L 98.5 8 L 98 2 L 95.5 2 L 95.5 1 Z " /><path fill="rgb(127,127,127)" stroke="rgb(127,127,127)" stroke-width="1" opacity="1" d="M 31.5 3 L 40 3.5 L 31.5 4 L 31.5 3 Z " /><path fill="rgb(127,127,127)" stroke="rgb(127,127,127)" stroke-width="1" opacity="1" d="M 47.5 3 L 71 3.5 L 47.5 4 L 47.5 3 Z " /><path fill="rgb(127,127,127)" stroke="rgb(127,127,127)" stroke-width="1" opacity="1" d="M 85.5 4 L 94 4 L 94 8 L 85 7.5 L 89 5.5 L 85.5 5 L 85.5 4 Z " /><path fill="rgb(127,127,127)" stroke="rgb(127,127,127)" stroke-width="1" opacity="1" d="M 65.5 7 L 80 7.5 L 65.5 8 L 65.5 7 Z " /><path fill="rgb(127,127,127)" stroke="rgb(127,127,127)" stroke-width="1" opacity="1" d="M 27.5 8 L 28 10.5 L 27 10.5 L 27.5 8 Z " /><path fill="rgb(127,127,127)" stroke="rgb(127,127,127)" stroke-width="1" opacity="1" d="M 98.5 9 L 106 10.5 L 98 11 L 98.5 9 Z " /><path fill="rgb(127,127,127)" stroke="rgb(127,127,127)" stroke-width="1" opacity="1" d="M 117.5 9 L 120 9.5 L 117.5 10 L 117.5 9 Z " /><path fill="rgb(127,127,127)" stroke="rgb(127,127,127)" stroke-width="1" opacity="1" d="M 14.5 10 L 20 10.5 L 14.5 11 L 14.5 10 Z " /><path fill="rgb(127,127,127)" stroke="rgb(127,127,127)" stroke-width="1" opacity="1" d="M 123.5 11 L 124 13.5 L 123 13.5 L 123.5 11 Z " /><path fill="rgb(127,127,127)" stroke="rgb(127,127,127)" stroke-width="1" opacity="1" d="M 111.5 13 L 118.5 13 L 120 14.5 L 118 15.5 L 118.5 17 L 116.5 16 L 117.5 19 L 115.5 17 L 113 17 L 112.5 19 L 112 17 L 99.5 18 L 98 14 L 110.5 14 L 111.5 13 Z " /><path fill="rgb(127,127,127)" stroke="rgb(127,127,127)" stroke-width="1" opacity="1" d="M 7.5 14 L 20.5 14 L 27 15 L 27 19 L 25.5 19 L 24.5 18 L 13.5 18 L 10.5 17 L 8.5 18 L 7 16.5 L 7.5 14 Z " /><path fill="rgb(127,127,127)" stroke="rgb(127,127,127)" stroke-width="1" opacity="1" d="M 55.5 16 L 56.5 18 L 55.5 16 Z " /><path fill="rgb(127,127,127)" stroke="rgb(127,127,127)" stroke-width="1" opacity="1" d="M 3.5 19 L 7.5 24 L 3.5 19 Z " /><path fill="rgb(127,127,127)" stroke="rgb(127,127,127)" stroke-width="1" opacity="1" d="M 112.5 21 L 113.5 23 L 112.5 21 Z " /><path fill="rgb(127,127,127)" stroke="rgb(127,127,127)" stroke-width="1" opacity="1" d="M 62.5 22 L 65 22.5 L 62.5 23 L 62.5 22 Z " /><path fill="rgb(127,127,127)" stroke="rgb(127,127,127)" stroke-width="1" opacity="1" d="M 9.5 26 L 10.5 28 L 9.5 26 Z " /><path fill="rgb(127,127,127)" stroke="rgb(127,127,127)" stroke-width="1" opacity="1" d="M 115.5 26 L 114.5 28 L 115.5 26 Z " /><path fill="rgb(127,127,127)" stroke="rgb(127,127,127)" stroke-width="1" opacity="1" d="M 17.5 34 L 18.5 36 L 17.5 34 Z " /><path fill="rgb(127,127,127)" stroke="rgb(127,127,127)" stroke-width="1" opacity="1" d="M 100.5 36 L 103 36.5 L 100.5 37 L 100.5 36 Z " /><path fill="rgb(127,127,127)" stroke="rgb(127,127,127)" stroke-width="1" opacity="1" d="M 97.5 46 L 98 50.5 L 97 50.5 L 97.5 46 Z " /><path fill="rgb(127,127,127)" stroke="rgb(127,127,127)" stroke-width="1" opacity="1" d="M 6.5 61 L 21 61.5 L 6.5 62 L 6.5 61 Z " /><path fill="rgb(127,127,127)" stroke="rgb(127,127,127)" stroke-width="1" opacity="1" d="M 123.5 64 L 125 64 L 125 67.5 L 124 67.5 L 123.5 64 Z " /><path fill="rgb(127,127,127)" stroke="rgb(127,127,127)" stroke-width="1" opacity="1" d="M 6.5 65 L 8.5 65 L 20.5 65 L 27 66 L 26.5 69 L 9.5 69 L 5 66.5 L 6.5 65 Z " /><path fill="rgb(127,127,127)" stroke="rgb(127,127,127)" stroke-width="1" opacity="1" d="M 98 67 L 103.5 68 L 106.5 67 L 111.5 68 L 113.5 68 L 121 68.5 L 120.5 71 L 118.5 70 L 111.5 72 L 98 72 L 98 67 Z " /><path fill="rgb(127,127,127)" stroke="rgb(127,127,127)" stroke-width="1" opacity="1" d="M 84.5 72 L 85 76.5 L 84 76.5 L 84.5 72 Z " /><path fill="rgb(127,127,127)" stroke="rgb(127,127,127)" stroke-width="1" opacity="1" d="M 117.5 74 L 116.5 76 L 117.5 74 Z " /><path fill="rgb(127,127,127)" stroke="rgb(127,127,127)" stroke-width="1" opacity="1" d="M 122.5 76 L 120.5 79 L 122.5 76 Z " /><path fill="rgb(127,127,127)" stroke="rgb(127,127,127)" stroke-width="1" opacity="1" d="M 8.5 77 L 11.5 81 L 8.5 77 Z " /><path fill="rgb(127,127,127)" stroke="rgb(127,127,127)" stroke-width="1" opacity="1" d="M 118.5 80 L 116.5 83 L 118.5 80 Z " /><path fill="rgb(127,127,127)" stroke="rgb(127,127,127)" stroke-width="1" opacity="1" d="M 18.5 81 L 19.5 83 L 18.5 81 Z " /><path fill="rgb(127,127,127)" stroke="rgb(127,127,127)" stroke-width="1" opacity="1" d="M 17.5 86 L 18.5 88 L 17.5 86 Z " /><path fill="rgb(127,127,127)" stroke="rgb(127,127,127)" stroke-width="1" opacity="1" d="M 113.5 86 L 108.5 92 L 113.5 86 Z " /><path fill="rgb(127,127,127)" stroke="rgb(127,127,127)" stroke-width="1" opacity="1" d="M 80.5 87 L 81 89.5 L 80 89.5 L 80.5 87 Z " /><path fill="rgb(127,127,127)" stroke="rgb(127,127,127)" stroke-width="1" opacity="1" d="M 50.5 93 L 54.5 100 L 56 100.5 L 54.5 101 L 51 97.5 L 50.5 93 Z " /><path fill="rgb(127,127,127)" stroke="rgb(127,127,127)" stroke-width="1" opacity="1" d="M 99.5 94 L 102 94.5 L 99.5 95 L 99.5 94 Z " /><path fill="rgb(127,127,127)" stroke="rgb(127,127,127)" stroke-width="1" opacity="1" d="M 76.5 98 L 75.5 100 L 76.5 98 Z " /><path fill="rgb(127,127,127)" stroke="rgb(127,127,127)" stroke-width="1" opacity="1" d="M 96.5 102 L 97 114.5 L 96 114.5 L 96.5 102 Z " /><path fill="rgb(127,127,127)" stroke="rgb(127,127,127)" stroke-width="1" opacity="1" d="M 7.5 115 L 9 115.5 L 6.5 117 L 7.5 115 Z " /><path fill="rgb(127,127,127)" stroke="rgb(127,127,127)" stroke-width="1" opacity="1" d="M 16.5 115 L 19 115.5 L 16.5 116 L 16.5 115 Z " /><path fill="rgb(127,127,127)" stroke="rgb(127,127,127)" stroke-width="1" opacity="1" d="M 11.5 119 L 18.5 119 L 27 121 L 27 124 L 24.5 124 L 23.5 123 L 15.5 123 L 10 120.5 L 11.5 119 Z " /><path fill="rgb(127,127,127)" stroke="rgb(127,127,127)" stroke-width="1" opacity="1" d="M 107.5 119 L 115 119.5 L 107.5 120 L 107.5 119 Z " /><path fill="rgb(127,127,127)" stroke="rgb(127,127,127)" stroke-width="1" opacity="1" d="M 118.5 119 L 119.5 121 L 118.5 119 Z " /><path fill="rgb(127,127,127)" stroke="rgb(127,127,127)" stroke-width="1" opacity="1" d="M 69.5 123 L 73 124.5 L 71.5 128 L 66 127.5 L 72 127 L 72 124 L 69.5 124 L 69.5 123 Z " /><path fill="rgb(127,127,127)" stroke="rgb(127,127,127)" stroke-width="1" opacity="1" d="M 105.5 123 L 116 123.5 L 113.5 126 L 109.5 127 L 96 127 L 96 124 L 104.5 124 L 105.5 123 Z " /><path fill="rgb(127,127,127)" stroke="rgb(127,127,127)" stroke-width="1" opacity="1" d="M 9.5 126 L 12.5 130 L 9.5 126 Z " /><path fill="rgb(127,127,127)" stroke="rgb(127,127,127)" stroke-width="1" opacity="1" d="M 52.5 126 L 50 129.5 L 51 131.5 L 49 130.5 L 52.5 126 Z " /><path fill="rgb(127,127,127)" stroke="rgb(127,127,127)" stroke-width="1" opacity="1" d="M 116.5 129 L 115.5 131 L 116.5 129 Z " /><path fill="rgb(127,127,127)" stroke="rgb(127,127,127)" stroke-width="1" opacity="1" d="M 113.5 132 L 111.5 135 L 113.5 132 Z " /><path fill="rgb(127,127,127)" stroke="rgb(127,127,127)" stroke-width="1" opacity="1" d="M 15.5 133 L 20.5 139 L 15.5 133 Z " /><path fill="rgb(127,127,127)" stroke="rgb(127,127,127)" stroke-width="1" opacity="1" d="M 95.5 144 L 100 144.5 L 95.5 145 L 95.5 144 Z " /><path fill="rgb(127,127,127)" stroke="rgb(127,127,127)" stroke-width="1" opacity="1" d="M 28.5 158 L 29 161.5 L 28 161.5 L 28.5 158 Z " /><path fill="rgb(127,127,127)" stroke="rgb(127,127,127)" stroke-width="1" opacity="1" d="M 90.5 160 L 91 162.5 L 90 162.5 L 90.5 160 Z " /><path fill="rgb(127,127,127)" stroke="rgb(127,127,127)" stroke-width="1" opacity="1" d="M 94.5 168 L 95 169.5 L 92.5 171 L 92.5 170 L 94 170 L 94.5 168 Z " /><path fill="rgb(127,127,127)" stroke="rgb(127,127,127)" stroke-width="1" opacity="1" d="M 36.5 169 L 49 169.5 L 36.5 170 L 36.5 169 Z " /><path fill="rgb(127,127,127)" stroke="rgb(127,127,127)" stroke-width="1" opacity="1" d="M 53.5 170 L 54 239.5 L 53 239.5 L 53.5 170 Z " /><path fill="rgb(127,127,127)" stroke="rgb(127,127,127)" stroke-width="1" opacity="1" d="M 74.5 171 L 75 199.5 L 74 199.5 L 74.5 171 Z " /><path fill="rgb(127,127,127)" stroke="rgb(127,127,127)" stroke-width="1" opacity="1" d="M 70.5 174 L 71 176 L 69 175.5 L 70.5 174 Z " /><path fill="rgb(127,127,127)" stroke="rgb(127,127,127)" stroke-width="1" opacity="1" d="M 69.5 192 L 70 207.5 L 69 207.5 L 69.5 192 Z " /><path fill="rgb(127,127,127)" stroke="rgb(127,127,127)" stroke-width="1" opacity="1" d="M 69.5 216 L 70 218.5 L 69 218.5 L 69.5 216 Z " /><path fill="rgb(127,127,127)" stroke="rgb(127,127,127)" stroke-width="1" opacity="1" d="M 73.5 235 L 74 257.5 L 73 257.5 L 73.5 235 Z " /><path fill="rgb(127,127,127)" stroke="rgb(127,127,127)" stroke-width="1" opacity="1" d="M 72.5 286 L 73 319.5 L 72 319.5 L 72.5 286 Z " /><path fill="rgb(127,127,127)" stroke="rgb(127,127,127)" stroke-width="1" opacity="1" d="M 54.5 320 L 55 372.5 L 54 372.5 L 54.5 320 Z " /><path fill="rgb(127,127,127)" stroke="rgb(127,127,127)" stroke-width="1" opacity="1" d="M 38.5 372 L 45 372.5 L 38.5 373 L 38.5 372 Z " /><path fill="rgb(127,127,127)" stroke="rgb(127,127,127)" stroke-width="1" opacity="1" d="M 80.5 373 L 92 373.5 L 80.5 374 L 80.5 373 Z " /><path fill="rgb(127,127,127)" stroke="rgb(127,127,127)" stroke-width="1" opacity="1" d="M 29.5 375 L 31.5 376 L 49.5 376 L 50.5 377 L 96 377 L 96 381 L 88.5 381 L 87.5 380 L 31.5 380 L 28 379 L 29.5 375 Z " /><path fill="rgb(127,127,127)" stroke="rgb(127,127,127)" stroke-width="1" opacity="1" d="M 103.5 391 L 104 393.5 L 103 393.5 L 103.5 391 Z " /><path fill="rgb(127,127,127)" stroke="rgb(127,127,127)" stroke-width="1" opacity="1" d="M 100.5 398 L 104 398.5 L 100.5 399 L 100.5 398 Z " /><path fill="rgb(127,127,127)" stroke="rgb(127,127,127)" stroke-width="1" opacity="1" d="M 23.5 399 L 33 399.5 L 23.5 400 L 23.5 399 Z " /><path fill="rgb(254,127,0)" stroke="rgb(254,127,0)" stroke-width="1" opacity="1" d="M 77.5 92 L 78 93.5 L 74.5 99 L 68 99.5 L 71 100.5 L 64.5 103 L 56.5 100 L 53 96.5 L 53.5 95 L 57.5 98 L 65.5 99 L 70.5 98 L 77 94 L 77.5 92 Z " /><path fill="rgb(254,127,127)" stroke="rgb(254,127,127)" stroke-width="1" opacity="1" d="M 79.5 90 L 80 91.5 L 78 96.5 L 72.5 103 L 64.5 104 L 56 102 L 56 100 L 54.5 100 L 52 96.5 L 56.5 100 L 66.5 103 L 71 100.5 L 68 99.5 L 74.5 99 L 76 97.5 L 77 94.5 L 76.5 93 L 78 93.5 L 79.5 90 Z " /><path fill="rgb(254,254,0)" stroke="rgb(254,254,0)" stroke-width="1" opacity="1" d="M 65.5 73 L 71.5 74 L 75 76.5 L 71.5 78 L 68.5 77 L 65.5 73 Z " /><path fill="rgb(254,254,0)" stroke="rgb(254,254,0)" stroke-width="1" opacity="1" d="M 58 74 L 62 74 L 62 75.5 L 64 75.5 L 63 77.5 L 67 79.5 L 65.5 81 L 64.5 80 L 62 78.5 L 62 77 L 60.5 77 L 59.5 78 L 58 76.5 L 58 74 Z " /><path fill="rgb(254,254,0)" stroke="rgb(254,254,0)" stroke-width="1" opacity="1" d="M 56 80 L 58 80 L 58 84 L 56 84 L 56 80 Z " /><path fill="rgb(254,254,0)" stroke="rgb(254,254,0)" stroke-width="1" opacity="1" d="M 73.5 82 L 75 82 L 75 83.5 L 76 88.5 L 72.5 93 L 72 91.5 L 73 89.5 L 71 89.5 L 71 86.5 L 73.5 82 Z " /><path fill="rgb(254,254,0)" stroke="rgb(254,254,0)" stroke-width="1" opacity="1" d="M 61.5 85 L 64 86 L 64 89.5 L 62.5 91 L 61 90.5 L 61.5 85 Z " /><path fill="rgb(254,254,0)" stroke="rgb(254,254,0)" stroke-width="1" opacity="1" d="M 57.5 92 L 58 96 L 56 96 L 56 93.5 L 57.5 92 Z " /><path fill="rgb(254,254,127)" stroke="rgb(254,254,127)" stroke-width="1" opacity="1" d="M 59.5 71 L 69.5 71 L 79 77.5 L 81 82.5 L 81 86.5 L 80 89.5 L 73.5 96 L 69.5 98 L 62.5 99 L 52 95 L 49 88.5 L 50 86.5 L 50 84.5 L 51 79.5 L 57.5 72 L 59.5 71 Z M 66 73 L 71 78 L 74 76 L 66 73 Z M 58 74 L 58 77 L 60 78 L 61 77 L 62 77 L 62 79 L 65 80 L 66 81 L 67 80 L 63 78 L 64 76 L 62 76 L 62 74 L 58 74 Z M 56 80 L 56 84 L 58 84 L 58 80 L 56 80 Z M 74 82 L 71 87 L 71 90 L 74 89 L 73 91 L 76 89 L 75 84 L 75 82 L 74 82 Z M 62 85 L 61 91 L 63 91 L 64 90 L 64 86 L 62 85 Z M 58 92 L 56 94 L 56 96 L 58 96 L 58 92 Z " /><path fill="rgb(254,254,254)" stroke="rgb(254,254,254)" stroke-width="1" opacity="1" d="M 0 0 L 28 0.5 L 27 1.5 L 27 11 L 20.5 11 L 19.5 10 L 7.5 10 L 5.5 9 L 2 11.5 L 3 19.5 L 18.5 36 L 27 37 L 27 61.5 L 26.5 62 L 21.5 62 L 20.5 61 L 6.5 61 L 1 62 L 0.5 64 L 0 0 Z " /><path fill="rgb(254,254,254)" stroke="rgb(254,254,254)" stroke-width="1" opacity="1" d="M 87.5 0 L 125 0 L 125 64 L 100.5 64 L 98 63 L 98 37.5 L 99.5 36 L 102.5 37 L 107.5 35 L 116 26.5 L 123 18.5 L 124 11.5 L 117.5 9 L 116.5 10 L 99.5 10 L 98 8.5 L 99 7.5 L 99 2.5 L 97.5 1 L 87.5 1 L 87.5 0 Z " /><path fill="rgb(254,254,254)" stroke="rgb(254,254,254)" stroke-width="1" opacity="1" d="M 31 4 L 84.5 4 L 89 5.5 L 84.5 8 L 80.5 8 L 79.5 7 L 31 7 L 31 4 Z " /><path fill="rgb(254,254,254)" stroke="rgb(254,254,254)" stroke-width="1" opacity="1" d="M 65.5 22 L 68 23 L 66.5 26 L 56 29 L 52.5 34 L 49 35 L 49 31.5 L 54.5 26 L 65.5 22 Z " /><path fill="rgb(254,254,254)" stroke="rgb(254,254,254)" stroke-width="1" opacity="1" d="M 0.5 69 L 4 75 L 5.5 75 L 18.5 88 L 27 90 L 27 116.5 L 24.5 117 L 18.5 115 L 7.5 115 L 6 116.5 L 6 123.5 L 7 126 L 15 132.5 L 20.5 139 L 28 142.5 L 28 161.5 L 30.5 168 L 36.5 170 L 53 170 L 53 239.5 L 54 240.5 L 54 373 L 26 372 L 17 397.5 L 18.5 400 L 0.5 400 L 0 399.5 L 0.5 69 Z " /><path fill="rgb(254,254,254)" stroke="rgb(254,254,254)" stroke-width="1" opacity="1" d="M 124.5 73 L 125 400 L 34 399.5 L 104 399 L 104 391.5 L 99 374 L 92.5 374 L 91.5 373 L 72 373 L 73 258.5 L 74 257.5 L 74 200.5 L 75 199.5 L 75 171 L 93.5 171 L 95 169.5 L 95 145.5 L 95.5 145 L 99.5 145 L 103.5 143 L 114 132.5 L 114 131 L 115.5 131 L 120 125.5 L 120 120.5 L 118.5 119 L 107.5 119 L 106.5 120 L 96 120 L 97 114.5 L 97 94 L 101.5 95 L 108.5 92 L 114 86.5 L 119 79 L 123 76.5 L 124.5 73 Z " /><path fill="rgb(254,254,254)" stroke="rgb(254,254,254)" stroke-width="1" opacity="1" d="M 60.5 123 L 68.5 123 L 72 124 L 71.5 127 L 59.5 127 L 51.5 132 L 50 129.5 L 56.5 124 L 60.5 123 Z " /></svg>