<?xml version="1.0" standalone="yes"?>
<svg xmlns="http://www.w3.org/2000/svg" width="322" height="642">
<path style="stroke:#000000; fill:none;" d="M145 12C148.658 4.52142 158.382 2.34674 166 4.27081C168.455 4.89099 177.22 6.58655 175.654 10.7755C174.223 14.6037 164.142 13 161 13C149.753 13 128.113 10.0926 119.093 17.5332C103.504 30.3936 116.037 59.958 111 77C101.145 62.5358 97.9743 35.6064 78 30M178 13L199 15.0093L211.563 29.5479L244 30M158 29.4429C201.751 23.1302 210.848 92.8254 167 99.8542C136.086 104.81 112.383 66.7588 133.329 42.0146C139.492 34.7333 148.718 30.7821 158 29.4429M83 31L112 30M211 31C208.95 42.0421 210 53.7986 210 65C210 66.5147 209.1 76.0656 212.043 75.3688C215.563 74.5356 217.425 64.9115 218.604 62C223.407 50.1451 231.031 40.9752 240 32M111 77C116.741 122.426 112 171.237 112 217C112 233.758 107.575 257.087 113.109 273C120.133 293.198 151.481 287 168 287C171.257 287 189.461 285.142 189.698 289.318C190.196 298.121 179.492 297.637 174 298.505C160.775 300.594 137.547 302.628 132 288M211 77L210 103L211.028 113.227L219 114.004L243 114M79 114C98.2671 123.582 100.917 145.763 111 162M83 114L111 114M153 114.465C199.405 106.094 214.842 175.695 168 184.532C123.44 192.939 108.029 122.576 153 114.465M211 115C208.95 126.042 210 137.799 210 149C210 150.515 209.1 160.066 212.043 159.369C215.515 158.547 217.486 148.884 218.72 146C223.751 134.246 230.996 125.029 240 116M211 161L210 188L211.603 197.883L220 198.015L243 198M79 198C97.8199 207.528 101.043 229.965 111 246M83 198L111 199M158 198.432C203.488 192.442 210.639 263.712 165 269.711C131.066 274.171 112.557 229.706 137.04 207.185C142.844 201.846 150.318 199.444 158 198.432M211 199C209.574 210.281 210 221.633 210 233C210 234.572 209.06 244.056 212.093 243.369C215.658 242.561 217.574 232.933 218.861 230C223.959 218.383 231.141 209.045 240 200M211 245C209.747 260.88 213.708 284.093 192 286M152 300L152 542L152 589C152 594.396 150.191 603.779 152.603 608.682C154.294 612.119 166.416 612.199 169.382 610.397C172.143 608.719 170 595.282 170 592L170 535L170 379C170 353.592 166.362 324.984 171 300M133 626C151.199 628.3 169.978 624.497 188 626.625C194.149 627.351 203.632 630.221 204.408 637.852C204.922 642.906 188.2 641 185 641L137 641C132.113 641 122.715 642.812 118.377 640.397C111.194 636.398 130.184 627.799 130.794 626.567C131.891 624.354 127.183 620.851 127.466 618.015C128.38 608.847 144.981 611.316 151 611M172 612C182.585 609.48 202.646 612.323 190 626"/>
</svg>
