<?xml version="1.0" standalone="yes"?>
<svg xmlns="http://www.w3.org/2000/svg" width="862" height="795">
<path style="fill:#000000; stroke:none;" d="M416 43.4244C367.138 49.8401 312.166 55.8863 278.465 97C269.803 107.567 264.031 121.323 263.09 135C262.461 144.13 264.388 153.924 262.852 162.941C261.9 168.528 254.38 166.638 253.229 173.005C252.305 178.115 253.992 183.809 254 189C254.023 203.06 253.952 217 254.91 231C255.58 240.774 253.441 251.361 255.228 260.995C256.147 265.946 261.484 266.98 261.941 272.019C263.397 288.065 262 304.883 262 321C262 328.663 263.683 338.718 260.968 345.996C257.217 356.047 239.593 358.581 239.098 370C238.923 374.031 239.064 384.446 243.279 386.397C247.872 388.523 258.742 382.614 260.682 389.148C263.062 397.164 261 408.643 261 417C261 436.648 261.467 456.359 260.985 476C260.851 481.488 261.634 491.528 259.566 496.513C257.58 501.303 251.445 499.026 251.04 507C249.846 530.536 251 554.431 251 578C251 594.025 249.318 611.081 251.109 626.999C251.835 633.453 258.696 633.545 258.981 640.005C260.039 663.994 251.912 696.436 269.184 715.999C285.127 734.056 311.175 741.561 334 746.199C384.568 756.474 438.059 755.417 489 748.718C516.229 745.138 545.116 739.78 570 727.742C580.26 722.778 591.546 716.785 596.672 706C605.07 688.332 597.312 661.215 599.059 642.019C599.621 635.841 607.129 636.769 607.891 629.999C610.084 610.518 608 589.614 608 570C608 551.008 610.04 529.77 606.852 511.059C606.081 506.532 601.52 508.664 600.318 505.512C596.607 495.784 600 478.451 600 468L600 413C600 406.864 597.87 395.873 600.603 390.318C604.049 383.314 620.301 391.388 623.382 384.682C624.551 382.138 623.271 378.649 623.089 376C622.806 371.861 623.943 366.775 621.397 363.174C616.325 356 603.857 353.386 600.603 344.961C598.749 340.16 600 333.084 600 328C600 316.366 599.53 304.622 600.039 293C600.555 281.213 599.181 267.636 601.148 256.059C601.957 251.298 607.814 251.154 608.772 245.995C610.561 236.361 608.42 225.774 609.089 216C610.048 202 609.977 188.06 610 174C610.008 168.809 611.695 163.115 610.771 158.005C609.64 151.747 603.773 154.555 602.013 151.111C598.681 144.592 599.093 134.204 597.739 127C595.794 116.647 591.398 106.541 585.254 98C557.175 58.9655 502.12 47.0176 457 43.9105C443.633 42.99 429.371 41.6687 416 43.4244z"/>
<path style="fill:#ffffff; stroke:none;" d="M422 49.4244C405.641 51.5724 389.29 51.7666 373 55.2107C354.128 59.2007 335.139 64.754 318 73.7809C314.525 75.6109 297.467 83.6336 306.639 88.8673C309.859 90.7048 316.731 86.3646 320 85.4275C331.386 82.1638 343.245 80.4252 355 79.1659C397.713 74.5902 442.101 72.1517 485 75.0895C501.615 76.2273 518.733 76.9264 535 80.8982C538.89 81.848 549.336 88.6448 552.485 87.0826C558.465 84.1162 556.275 79.1017 551.995 76.4498C543.617 71.2601 534.274 66.996 525 63.6921C494.063 52.6714 454.885 45.1065 422 49.4244M562.188 86.1759C555.981 88.6436 556.415 99.7469 556.849 105C558.112 120.285 569.918 143.199 588.852 133.867C593.521 131.565 591.454 125.924 590.279 122C586.975 110.974 581.019 101.222 572.985 93C570.607 90.5659 566.219 84.5734 562.188 86.1759M296.786 88.5417C293.19 88.8099 289.396 93.561 287.171 96.0038C279.641 104.27 273.602 114.071 270.899 125C268.748 133.697 267.645 141.552 279 140.956C294.645 140.135 301.023 118.901 301.91 106C302.151 102.509 302.686 88.1018 296.786 88.5417M410 290.424C384.142 293.82 358.422 294.983 334 305.427C325.141 309.216 312.742 314.872 309.819 325C307.872 331.743 312.101 341.324 313.576 348C315.123 355.004 316.337 377.04 323.394 380.397C327.701 382.446 335.306 381 340 381L380 381L480 381C495.594 381 513.544 383.5 528.895 380.852C534.845 379.826 537.133 369.738 539.309 365C547.893 346.305 552.919 330.76 533.996 315.669C503.162 291.08 448.079 285.425 410 290.424M564.397 400.241C559.408 399.57 540.677 410.443 539.318 415.185C537.242 422.43 539 432.474 539 440L539 492C539 500.678 536.525 513.84 539.603 521.985C541.561 527.165 557.764 541.901 563.397 542.458C565.802 542.696 564.999 536.355 565 535L565 512C565 483.931 561.923 453.82 565.576 426C566.438 419.434 566.045 412.615 565.999 406.001C565.989 404.547 566.546 400.53 564.397 400.241M295.013 406.213C290.466 409.465 294 429.72 294 435C294 464.051 295 492.943 295 522C295 530.052 295.984 537.984 296 546C296.003 547.681 295.061 554.518 298.318 553.168C304.367 550.661 318.829 539.77 321.397 533.711C324.88 525.491 321 511.798 321 503C321 475.829 322.611 444.862 317.853 418.105C317.105 413.903 298.786 403.514 295.013 406.213M324 424L324 437L325 437L324 424M325 450L325 467L326 467L325 450M326 475L326 498L327 498L326 475M327 500L327 521L328 527.944L328 521L327 500M500.981 547.444C465.892 550.673 429.254 550 394 550C384.626 550 375.388 551 366 551C363.422 551 358.042 550.013 356.028 552.028C353.495 554.561 355.535 560.949 355.83 564C356.954 575.611 358.316 587.356 358.965 599C359.135 602.069 358.564 610.626 361.603 612.397C368.799 616.588 387.648 613 396 613C420.337 613 444.617 614 469 614C477.11 614 490.154 617.181 497.683 614.682C501.985 613.254 500.953 603.58 501.424 600C503.15 586.897 504.361 573.204 504.961 560C505.176 555.253 507.952 546.802 500.981 547.444M585 711C507.066 731.197 425.732 728.385 346 723.986C327.088 722.943 307.167 719.724 289 714.292C287.198 713.753 271.66 707.416 271.366 708.083C269.832 711.568 284.479 721.012 287 722.662C305.467 734.745 328.613 738.962 350 742.593C405.598 752.03 464.973 747.883 520 736.801C540.904 732.591 569.422 726.641 585 711z"/>
</svg>
